<?xml version="1.0" encoding="UTF-8" standalone="no"?>
<!-- Created with Inkscape (http://www.inkscape.org/) -->
<svg
   xmlns:dc="http://purl.org/dc/elements/1.1/"
   xmlns:cc="http://web.resource.org/cc/"
   xmlns:rdf="http://www.w3.org/1999/02/22-rdf-syntax-ns#"
   xmlns:svg="http://www.w3.org/2000/svg"
   xmlns="http://www.w3.org/2000/svg"
   version="1.0"
   width="251"
   height="304.20001"
   id="svg4166">
  <defs
     id="defs4168" />
  <metadata
     id="metadata1880"><rdf:RDF><cc:Work
         rdf:about=""><dc:title>Mariefred vapen</dc:title><dc:date>05-10-2007</dc:date><dc:creator><cc:Agent><dc:title>Lokal_Profil</dc:title></cc:Agent></dc:creator><cc:license
         rdf:resource="http://creativecommons.org/licenses/by-sa/2.5/" /><dc:rights><cc:Agent><dc:title>cc-by-sa-2.5</dc:title></cc:Agent></dc:rights><dc:format>image/svg+xml</dc:format><dc:type
         rdf:resource="http://purl.org/dc/dcmitype/StillImage" /></cc:Work><cc:License
         rdf:about="http://creativecommons.org/licenses/by-sa/2.5/"><cc:permits
         rdf:resource="http://web.resource.org/cc/Reproduction" /><cc:permits
         rdf:resource="http://web.resource.org/cc/Distribution" /><cc:requires
         rdf:resource="http://web.resource.org/cc/Notice" /><cc:requires
         rdf:resource="http://web.resource.org/cc/Attribution" /><cc:permits
         rdf:resource="http://web.resource.org/cc/DerivativeWorks" /><cc:requires
         rdf:resource="http://web.resource.org/cc/ShareAlike" /></cc:License></rdf:RDF>
  </metadata>
  <path
     d="M 249.55058,1.4395041 L 1.4495291,1.4395041 L 1.4495291,174.9361 C 0.68228908,268.65698 81.738969,302.75585 125.50006,302.75585 C 168.49391,302.75585 250.31781,268.65698 249.55058,174.9361 L 249.55058,1.4395041 z "
     style="fill:#003d8f;stroke:none"
     id="Shield" />
  <path
     d="M 249.55062,1.4395041 L 1.449569,1.4395041 L 1.449569,174.9361 C 0.68232904,268.65698 81.739009,302.75585 125.5001,302.75585 C 168.49395,302.75585 250.31785,268.65698 249.55062,174.9361 L 249.55062,1.4395041 z "
     style="fill:none;fill-opacity:0;stroke:#000000;stroke-width:1.88832211;stroke-linejoin:bevel"
     id="Frame" />
  <path
     d="M 112.61282,58.364745 C 112.57902,59.495538 112.57567,58.433877 112.54235,59.118019 C 112.50903,59.802161 112.50903,60.488731 112.47522,61.208153 C 112.4414,61.927574 113.43842,61.482828 113.26559,62.374179 C 113.09275,63.265529 112.92183,64.122504 112.78613,64.978097 C 113.12798,67.926253 113.16179,71.08057 114.84107,73.170752 C 115.90284,74.33535 117.24026,75.261409 118.91955,75.945599 C 121.62774,76.494569 124.33545,75.979403 127.00841,74.33535 C 128.96099,72.449425 130.33365,69.535074 131.18925,65.76513 C 131.42731,65.285197 131.46064,64.700994 131.25638,63.914438 C 130.46744,63.330235 129.95228,62.406127 129.64565,61.206248 C 130.16082,60.864392 130.09178,60.109261 128.72102,58.842772 C 128.75483,56.132679 127.82829,55.379452 125.29341,55.34617 C 120.56218,54.663362 116.99839,55.92985 112.71329,54.970509 L 112.71519,54.972366 C 112.67995,56.103159 112.64662,57.233951 112.61282,58.364745 z M 136.2352,55.174795 C 135.31796,53.127048 136.22527,54.30493 134.44783,53.117866 C 126.25518,49.452192 119.09095,50.341114 110.52074,49.518849 C 108.94894,48.842385 108.57671,50.3135 107.75493,51.855187 C 106.93315,53.396874 106.31562,55.007647 107.275,56.791157 C 107.24168,60.012608 107.24168,63.337853 106.69318,64.948578 C 105.52858,68.067662 105.63095,69.609349 106.31752,70.397809 C 107.10407,71.733336 106.79698,72.866032 106.31752,73.961117 C 105.83806,75.056201 107.56544,75.341397 106.05708,75.957025 C 104.54872,76.572653 102.73136,77.465384 100.64118,79.829336 C 100.64118,80.926324 100.64118,81.99046 100.64118,83.085543 C 99.852237,84.387741 99.337067,85.691367 99.132817,86.957854 C 98.928558,88.224342 89.266587,91.345331 95.641879,89.597006 C 102.01717,87.848682 108.39484,84.490107 114.80394,80.822529 C 121.21304,77.154952 117.23981,79.47326 117.23981,79.47326 C 117.23981,79.47326 117.82066,78.553326 117.37595,76.42934 L 117.37595,76.431244 C 121.25017,78.488097 124.88442,77.322071 128.4144,74.64959 C 128.5501,78.110531 128.99623,80.441155 130.70932,80.269751 C 132.42241,80.098347 130.89166,76.81262 132.16006,77.738679 C 134.32509,79.046036 136.19332,86.5379 135.96143,80.067398 C 136.68133,80.822529 137.60549,81.335791 138.73628,81.677647 C 139.86707,82.019503 142.05819,74.476281 142.05819,74.476281 L 142.05629,74.474853 C 140.75456,73.445951 139.48617,72.315158 138.66391,70.806799 C 137.84165,69.298441 138.66582,70.018339 138.90578,68.751851 C 139.14574,67.485363 139.24811,66.181737 138.32348,64.87954 C 138.39062,63.235486 138.22111,61.556199 136.78179,59.567956 C 136.02856,57.408689 135.54863,57.951545 136.2352,55.174795 z "
     style="fill:#ffcd50;fill-opacity:1;fill-rule:evenodd;stroke:#003d8f;stroke-width:2.5553844;stroke-linejoin:round;stroke-miterlimit:4;stroke-dasharray:none;stroke-opacity:1"
     id="use2207" />
  <path
     d="M 38.05162,225.31263 C 76.99308,283.76057 159.88472,280.02395 204.03803,236.522 C 198.89732,237.00193 193.95945,234.32945 190.29187,234.60274 C 181.55024,238.85262 173.80419,242.45117 164.88973,244.81702 C 166.15622,245.87925 162.59482,248.96453 159.54286,249.99295 C 158.89153,251.39704 157.07465,252.87207 154.95065,251.91221 C 151.52305,253.2144 149.0215,254.24283 146.55327,251.77651 C 146.41758,252.83874 147.51314,253.9005 146.68944,254.82704 C 145.79814,255.78643 144.80542,257.29478 144.87399,258.39035 C 144.42976,259.00597 143.67463,259.0412 143.1609,259.55447 C 140.79742,258.52795 137.60929,257.12195 134.17978,254.58516 C 132.67142,254.72086 131.19829,254.31187 129.89467,254.2095 C 128.62818,254.14237 126.63799,254.2095 125.74716,255.58026 C 124.78777,257.15528 121.59965,257.84185 119.64707,256.95055 C 118.20727,256.29968 117.21408,254.00286 115.63716,254.07191 C 113.23797,254.24283 109.60372,257.43048 107.23977,257.29288 C 105.28719,257.19051 104.53206,253.28297 102.579,253.043 C 100.79735,252.83874 99.631317,252.83874 97.849186,252.49641 C 94.79914,251.94983 89.58797,245.09222 86.606486,244.40803 C 69.603646,241.80411 54.589097,234.63798 38.06638,225.31453 L 38.05162,225.31263 z "
     style="fill:#eeeeee;fill-opacity:1;fill-rule:evenodd;stroke:none"
     id="path1911" />
  <path
     d="M 138.90578,68.751851 C 139.14574,67.485363 139.24811,66.181737 138.32348,64.87954 C 138.39062,63.235486 138.22111,61.556199 136.78179,59.567956 C 136.02856,57.408689 135.54863,54.598133 136.2352,51.821382 C 136.33709,49.7312 140.58697,40.063517 140.58697,39.687855 C 140.75838,38.421414 139.90278,38.352329 139.25145,38.523734 C 136.44136,38.967957 134.62448,38.899395 130.9231,39.036994 C 129.58804,36.877823 128.25062,34.718556 126.94699,32.55886 C 125.9538,32.147966 125.16534,32.147966 124.44544,32.55886 C 123.86313,33.278759 123.28131,34.031986 122.69711,34.787118 C 122.42382,33.451592 122.45714,32.627899 121.60156,32.319371 C 119.85323,29.680219 116.42562,37.528684 115.22626,40.407801 C 112.00481,38.659476 108.88573,37.15107 106.69128,37.219631 C 104.90962,36.946337 104.70298,37.801931 104.73822,38.864209 C 105.35384,42.360335 106.48654,45.137086 107.8573,47.570077 C 108.50817,49.35173 108.67956,50.860137 107.75493,51.855187 C 106.93315,53.396874 106.31562,55.007647 107.275,56.791157 C 107.24168,60.012608 107.24168,63.337853 106.69318,64.948578 C 105.52858,68.067662 105.63095,69.609349 106.31752,70.397809 C 107.10407,71.733336 106.79698,72.866032 106.31752,73.961117 C 91.406761,62.134737 92.606592,48.423814 98.364828,38.549444 C 102.68327,31.111922 109.95129,26.929179 121.53823,27.511525 C 143.33944,28.777966 150.43701,52.329453 138.91863,68.749947 L 138.90578,68.751851 z "
     style="fill:#ffcd50;fill-opacity:1;fill-rule:evenodd;stroke:none"
     id="path1909" />
  <path
     d="M 209.18062,230.79757 C 212.19735,227.26759 213.53239,224.49084 216.03585,220.51425 C 212.05928,223.08485 208.18744,224.76413 203.93566,226.99239 C 205.92395,228.43171 207.8432,230.1448 209.18062,230.79567 L 209.18062,230.79757 z "
     style="fill:#eeeeee;fill-rule:evenodd;stroke:none"
     id="path1907" />
  <path
     d="M 153.57609,70.329248 C 160.98029,70.329248 167.01371,76.362206 167.01371,83.7664 C 167.01371,86.678846 166.08956,89.422269 164.54597,91.650527 C 164.9902,90.759699 165.09257,80.989649 162.01062,80.681121 C 160.19563,78.350498 157.41888,76.67121 153.20043,76.80881 C 144.32359,76.193183 142.43766,81.333886 142.12865,85.379029 C 143.25945,87.469688 144.08171,91.377231 143.39562,92.508025 C 141.3402,90.144072 140.10514,87.092121 140.10514,83.7664 C 140.10514,76.464573 146.17238,70.329248 153.57609,70.329248 z "
     style="fill:#ffcd50;fill-opacity:1;fill-rule:evenodd;stroke:none"
     id="path1903" />
  <path
     d="M 110.52074,49.518849 C 119.09095,50.341114 126.25518,49.452192 134.44783,53.117866 C 135.57863,49.725487 136.64038,46.400289 139.24621,41.155267 C 139.69043,39.991193 139.58854,39.511261 139.07481,39.442176 C 138.21968,39.475981 133.48797,40.26444 129.82039,40.26444 C 128.72484,39.544542 127.24981,37.112075 125.53529,33.511107 C 124.78206,35.019466 123.95979,36.321663 122.93137,36.492592 C 121.62965,35.910292 120.77214,34.917575 120.80738,33.100212 C 119.50566,34.7795 118.16823,37.041086 116.72891,41.257633 C 116.14661,42.250827 115.32482,42.250827 114.36495,41.770895 C 111.69247,40.126841 109.01762,38.996048 106.3099,38.171878 C 106.3099,41.015763 107.3031,44.512412 110.52597,49.517469 L 110.52074,49.518849 z "
     style="fill:#ffcd50;fill-opacity:1;fill-rule:evenodd;stroke:none"
     id="path1949" />
  <path
     d="M 192.62011,111.73484 C 193.61402,111.40917 198.64413,108.85864 198.14962,107.02956 C 191.21726,107.85134 192.26712,110.65688 184.66933,106.14801 C 184.87405,108.23866 184.56696,109.84891 183.7785,111.21967 C 182.09921,111.49345 179.25342,112.76184 176.40954,114.54349 C 173.70182,112.38427 167.87502,105.97327 164.30934,105.52857 C 161.4307,105.18624 161.19073,105.04863 160.33323,103.88451 C 159.271,101.89623 159.271,99.908409 160.33323,97.920118 C 165.09828,95.007672 175.24351,82.185671 162.11489,72.004726 L 162.11298,72.008534 C 164.51217,71.255307 166.67138,69.540311 168.45352,65.804171 C 171.4012,62.000422 175.71963,60.456831 181.41074,61.176729 C 174.59075,65.219968 179.52672,77.424437 171.36786,82.018075 C 176.2686,92.712281 196.28959,76.80881 203.59142,83.593567 C 199.47962,86.197485 196.00493,89.584089 193.86428,94.266943 C 191.72364,98.949796 191.2184,101.07777 199.47962,99.53608 C 207.74083,97.994393 213.05437,99.53608 215.52259,102.34664 C 211.17035,102.79086 208.59833,104.33445 207.87843,106.9736 C 205.23928,109.4066 202.60013,111.87434 199.99478,114.34257 C 198.62402,115.33576 198.11076,115.88425 196.77333,116.87745 C 198.86399,117.80208 198.79495,120.37409 199.44582,122.73805 C 202.97579,120.02986 206.88333,118.76147 211.16845,118.9343 C 214.59654,119.20807 218.05747,119.6542 221.52079,121.36729 C 218.71024,122.29145 216.24249,124.27973 214.15183,127.36501 C 210.41521,133.02088 206.71431,133.80982 202.97769,135.55815 C 202.87533,137.54596 203.52476,139.56757 204.89742,141.55587 C 207.5361,139.29428 211.61505,139.19191 217.16855,141.28257 C 222.24021,142.7557 225.42976,141.65824 228.34269,140.18702 C 229.85105,145.22535 226.25203,148.51537 221.24703,151.36115 C 217.78609,150.36796 211.95738,153.31373 206.23248,155.9886 C 205.61684,157.73692 205.23928,159.44954 206.77954,161.19786 C 211.88644,161.98442 216.96001,163.18615 222.06739,164.72784 C 228.99164,167.64028 230.15576,171.17217 230.5,174.80642 C 225.77019,172.5115 222.06739,172.68243 218.77737,173.98463 C 214.86983,175.76628 210.51568,176.86327 205.16881,176.45237 C 204.96408,178.26783 204.79315,180.08472 204.62175,181.90161 C 209.62675,181.79972 213.5343,183.8899 216.34438,188.175 C 220.2524,190.98557 223.40481,192.70009 225.87446,193.35095 C 220.42524,196.43479 214.9741,196.36766 209.52248,195.81917 C 202.25637,192.97528 197.97126,196.1615 195.0569,202.05733 C 195.6035,202.5368 196.15199,202.98149 196.70097,203.42762 C 199.95717,200.23998 204.51605,202.16113 209.24729,204.79838 C 212.33114,208.43072 215.79398,211.34507 219.59916,213.50429 C 216.34295,216.34818 211.61315,216.96571 205.44211,215.42402 C 197.52466,212.34017 192.51965,212.16733 190.42756,214.87695 C 189.0568,216.41912 188.43926,217.96081 188.54354,219.5044 C 193.8904,220.01766 198.24455,223.00105 202.1521,227.14856 C 205.16881,229.89008 208.52739,232.25546 212.23067,234.24375 C 205.78635,236.77863 199.34202,235.51024 192.89721,233.69715 C 180.93461,230.50904 172.5358,236.60961 164.27411,242.95157 C 163.17854,240.72331 160.53796,238.90833 160.16183,236.67816 C 160.5732,234.79415 161.12169,232.90823 162.63005,231.22894 C 163.96558,227.52803 164.00081,223.79141 164.27411,220.05479 C 164.44551,204.69792 164.00081,191.87639 163.45232,179.43386 C 162.08156,169.39052 161.8416,160.95789 160.4356,153.07234 C 169.65668,148.5825 169.10819,135.9319 166.43333,130.6536 C 166.80899,128.11872 167.46032,125.27293 167.80408,122.73615 C 169.17484,124.10691 170.9922,125.47766 173.80229,126.81461 C 175.00164,127.63688 177.16134,127.36168 179.80049,126.02806 C 182.06208,123.83503 184.01656,121.40062 186.31338,119.2414 C 188.30167,115.71141 190.63229,112.38617 192.62011,111.73484 z M 58.51521,100.49595 C 46.861806,96.108468 40.073239,95.835174 38.118277,99.640351 C 42.025822,98.47623 51.453349,110.30123 55.978424,113.35127 C 55.533726,115.30386 54.676703,117.25882 53.476873,119.17807 C 50.975321,120.75357 48.438727,120.85784 45.93527,119.45137 C 35.034902,116.33276 30.26986,117.25882 28.315136,119.99843 C 37.912116,117.73684 40.313206,131.17257 49.294129,132.0296 C 47.785961,134.18929 47.066063,136.3147 47.066063,138.4744 C 37.776421,136.52134 29.172539,140.90691 23.858908,137.06984 C 22.454725,143.308 25.914046,146.94225 34.177404,147.97068 C 37.638822,149.03243 40.621734,148.79247 44.802573,153.00902 C 44.631644,154.37978 44.904939,156.91656 43.980784,158.28732 C 41.239265,160.8222 36.954155,161.2688 31.949148,160.8222 C 20.808766,161.64446 20.979838,166.51139 20.5,171.17407 C 24.303416,168.43255 28.794973,169.01485 33.35514,170.04328 C 36.714189,171.5164 40.450805,172.6472 44.529278,173.40233 C 45.831475,175.11543 46.310932,176.52142 45.933365,177.58317 C 35.821459,179.50242 32.358613,188.44831 26.360411,189.89 C 26.702649,192.08255 30.987854,193.11097 43.980784,191.56929 C 45.831475,191.84258 47.716924,192.11636 49.567425,192.39155 C 50.320652,194.27558 51.04055,196.1277 51.795681,197.97839 C 42.918552,194.68837 38.153986,208.43263 30.852159,209.46105 C 34.484504,212.2359 38.289682,213.57333 47.888328,211.10511 C 52.61747,210.42091 57.211584,211.34507 61.016761,215.32166 C 53.201674,219.33157 46.209041,223.34338 45.078248,227.31949 C 47.888328,228.82785 50.698217,230.30098 53.474968,231.80933 C 58.615672,230.78281 63.347386,230.8847 67.734386,232.08262 C 72.704161,234.68655 76.440777,237.94323 79.183724,241.26847 C 80.965853,241.85077 82.713702,242.1593 84.495831,242.7078 C 83.091267,239.34921 83.5712,237.49852 85.899919,237.12096 C 84.52916,235.1679 85.112887,233.21342 85.352853,231.26036 C 83.331233,224.74747 86.346046,219.53773 87.854405,213.91567 C 86.072752,210.11192 86.346046,205.24308 87.58111,199.92954 C 86.998812,197.97649 87.752039,196.022 88.67667,194.06894 C 89.703192,188.20882 90.731618,182.3463 91.760045,176.44857 C 91.040623,171.44403 92.58231,168.42732 93.439808,164.99923 C 92.926546,162.56672 93.304113,160.16753 94.570601,157.73311 C 94.503467,155.64246 98.10058,149.88422 98.75144,144.33072 C 95.290024,147.96306 92.238073,150.84409 89.53036,153.00331 C 89.050427,155.88242 86.651242,157.45981 83.943052,158.86391 C 79.348186,160.8692 80.595886,161.76907 74.997171,160.81839 C 73.935416,159.17433 71.878563,157.35745 72.153763,155.84909 C 71.606697,154.75353 70.713965,154.61594 70.713965,152.96997 C 69.514611,151.42829 71.021065,150.39939 71.364827,150.19513 C 71.364827,150.19513 78.149584,149.24478 78.149584,149.24478 L 78.159106,149.24288 C 79.460827,148.24969 80.72922,146.94749 82.031417,145.33533 C 83.057939,143.03994 84.053036,142.25148 85.081463,141.66776 C 85.217158,140.02323 84.774839,138.34394 83.779742,136.69798 C 84.086366,131.41968 83.299809,126.1747 83.983999,120.89497 C 84.497259,118.97524 85.559491,117.056 87.240682,115.10151 C 86.65886,110.92019 87.307815,106.15563 89.604635,100.80638 C 88.680479,98.784758 89.19374,97.070238 91.112993,95.630441 C 92.277115,93.335527 93.443617,91.002998 94.57441,88.70618 C 96.116097,87.542058 97.624456,86.957854 99.132817,86.957854 C 99.337067,85.691367 99.852237,84.387741 100.64118,83.085543 C 100.64118,81.99046 100.64118,80.926324 100.64118,79.829336 C 102.73136,77.465384 104.54872,76.572653 106.05708,75.957025 C 97.864422,69.547929 92.757047,61.49097 92.65468,51.070059 C 90.426899,49.150806 87.85631,48.706107 85.079559,49.117478 C 85.490453,50.419199 86.450317,51.721396 87.443511,53.02507 C 90.424995,56.245996 92.241881,61.080076 93.510274,66.633578 C 94.434906,68.517598 94.743434,70.265923 95.669493,72.151847 C 94.882938,73.831135 94.334444,74.961928 92.859413,75.304261 C 91.832892,74.997161 90.837794,74.721961 89.809368,74.413433 C 76.954038,60.358273 73.081727,62.895058 67.972447,63.170258 C 70.507804,64.265817 72.016162,67.351572 73.388351,70.745855 C 74.108249,75.44186 76.267468,79.555566 79.866484,83.085543 C 77.844865,84.593902 76.405068,86.40936 75.548045,88.501923 C 65.984632,83.429781 55.974616,75.750388 48.295414,81.132962 C 52.031839,82.503721 54.910956,84.731978 56.932576,87.850586 C 60.468982,90.969194 64.958696,94.979709 62.661525,102.48876 C 63.141457,101.6665 58.031945,101.3144 58.511401,100.49214 M 142.05819,74.476281 C 144.35311,71.495274 147.60979,69.884549 151.51924,69.231783 C 154.39835,66.627865 155.87148,62.718417 156.65994,58.228573 C 157.72169,53.499241 159.53906,50.584937 161.73161,48.42567 C 159.43669,47.363439 156.83087,47.945738 154.05412,49.898319 C 151.65493,52.879804 148.94722,54.114915 146.10143,54.730495 C 145.48581,62.09898 142.50289,66.93306 138.66391,70.806799 C 139.48617,72.315158 140.75456,73.445951 142.05629,74.474853 L 142.05819,74.476281 z "
     style="fill:#ffcd50;fill-opacity:1;fill-rule:evenodd;stroke:none"
     id="path1953" />
  <path
     d="M 85.700899,135.29009 C 87.344953,131.93103 88.784274,128.77672 103.08131,112.39141 C 104.72536,109.06807 106.61128,105.91375 110.99877,102.58803 C 112.91801,98.33863 116.85889,95.252876 120.18461,91.92763 C 120.0132,90.69447 120.38886,89.49464 121.34873,88.260052 C 121.96436,86.820255 121.0064,86.40936 120.35554,85.791828 C 115.21483,85.894195 114.08213,83.839247 114.80394,80.822529 C 108.39484,84.490107 102.01717,87.848682 95.641879,89.597006 C 94.579647,92.956056 92.831323,96.110374 90.981107,99.091857 C 92.180462,98.201031 93.688821,97.378765 94.92198,95.732807 C 93.860225,97.685865 92.558027,99.091857 91.118707,100.25788 C 89.747948,104.54299 88.583826,108.93047 88.788083,114.00404 C 90.227879,113.01084 91.700529,112.05098 93.140326,111.05636 C 93.106997,111.50058 93.073193,111.94719 93.004631,112.39141 C 89.987914,114.2421 87.177358,116.50369 85.702804,121.85245 C 85.051943,126.54894 85.189542,130.96975 85.702804,135.29009 L 85.700899,135.29009 z M 138.87055,105.67188 C 142.70905,103.37697 146.2057,102.38187 148.09162,104.78105 C 147.9207,103.58123 147.78453,102.34854 147.64693,101.11347 C 144.63021,99.262786 143.97935,97.103567 143.70605,94.840077 C 139.52522,91.036803 137.84545,86.647422 138.73628,81.677647 C 137.60549,81.335791 136.68133,80.822529 135.96143,80.067398 C 134.56423,81.453906 133.98472,79.304991 132.16006,77.738679 C 132.26243,79.691737 132.3648,81.646223 132.43336,83.599281 C 130.41174,84.078737 129.38332,84.901002 128.49249,85.791828 C 126.8132,86.818351 125.13344,87.162588 123.42035,87.402554 C 124.10501,89.150879 124.79111,91.481026 125.44244,94.395377 C 127.29265,97.239262 129.48568,98.371959 131.71536,99.227552 C 134.97205,101.38678 137.16508,103.51266 138.8796,105.67188 L 138.87055,105.67188 z M 161.25548,228.87831 C 163.55087,214.10325 164.03033,192.84911 159.47383,153.5299 C 157.10988,154.24932 151.96774,152.15914 146.8937,146.43423 C 146.03811,146.05857 145.18108,145.681 144.32359,145.33866 C 144.52832,147.46266 144.32359,149.69091 143.67273,151.85203 C 144.69925,152.84523 145.83195,153.29183 145.48771,156.13715 C 144.22122,156.99274 143.56845,158.0564 142.71286,159.3586 C 141.4797,160.52272 140.45128,161.92871 139.62901,163.53943 C 138.60249,165.25253 137.98496,165.73246 137.22983,165.69866 C 135.82574,165.08303 135.27724,164.46549 135.61958,163.36851 C 138.08732,159.83853 138.63629,155.51961 136.95462,151.50827 C 136.54373,152.15914 135.92811,152.98092 135.51531,153.59845 C 134.83064,154.62498 134.69304,155.99764 135.27534,157.02607 C 135.27534,158.56823 135.41103,159.97422 134.55544,161.51591 C 134.14455,162.44006 133.18468,162.5091 131.88296,162.54243 C 129.96371,162.60957 128.01065,163.74227 126.08949,164.66642 C 125.33626,182.66246 125.40483,192.91196 125.91856,198.8435 C 127.66642,196.17055 129.34617,193.29143 135.44817,193.22287 C 134.52401,183.28189 133.63319,173.82085 134.00885,163.87986 C 134.86444,164.29076 135.17297,165.04398 135.17297,166.31238 C 134.17978,170.15136 134.35118,175.25826 135.44626,179.68097 C 135.82193,183.86228 136.1995,188.04503 136.57706,192.26109 C 137.43266,192.67247 138.29015,190.10188 139.14765,187.08516 C 138.46299,194.42032 136.74847,200.45375 134.31547,205.62969 C 134.34928,210.32617 135.27534,214.30228 142.1996,213.37622 C 143.29516,207.06949 144.35882,201.44694 145.45629,192.3968 C 146.17571,187.59843 146.44947,183.75991 146.72278,179.81714 C 146.7561,187.90552 146.62041,196.30434 144.46119,208.68022 C 144.35882,211.97022 143.1947,214.98695 147.20271,219.16968 C 150.49271,219.23682 153.85177,218.96495 156.25286,223.86569 C 157.89691,225.50974 159.5762,227.18951 161.25738,228.8707 L 161.25548,228.87831 z M 136.77989,194.08227 C 135.92429,197.23468 135.0668,200.42233 134.20977,203.57664 C 133.11422,205.52922 132.05056,207.34659 131.26162,205.80491 C 129.47996,205.73777 127.86924,205.46257 127.62927,203.81661 C 127.21837,200.79989 127.49358,197.98982 129.27333,195.59016 C 131.94629,194.15083 134.44974,193.63757 136.77989,194.08227"
     style="fill:#ffcd50;fill-opacity:1;fill-rule:evenodd;stroke:none"
     id="path20" />
  <path
     d="M 114.25687,100.01601 C 115.0101,99.742718 117.37595,101.5577 118.71339,102.4152 C 119.15761,102.7223 119.22665,99.982685 119.39758,100.05125 C 120.0132,99.229457 121.0083,103.5479 122.51666,106.04944 C 121.93436,107.48877 122.07196,107.62494 122.96136,106.52938 C 124.09216,107.59114 126.04474,108.51767 128.89053,109.06427 C 129.88372,109.37136 131.49444,109.64656 133.03804,109.85081 C 132.9709,110.94638 132.45574,111.94148 132.6957,111.94148 C 133.37989,111.9748 133.58653,111.15492 133.89505,109.91985 C 134.20216,109.95318 134.30643,109.98651 134.64876,110.02222 C 138.6582,107.14311 145.13823,101.65816 149.04577,106.80077 C 149.11244,106.6984 149.79901,106.45844 149.59237,106.25418 C 148.87295,105.53428 148.46157,102.4152 148.77058,101.96907 C 149.42144,103.27079 150.41463,103.51076 151.92299,103.78405 C 154.28694,102.75754 156.44807,101.5558 158.46968,99.603214 C 157.95643,102.82466 159.66904,106.42321 164.15888,106.52748 C 168.40876,107.93157 172.18061,111.49678 175.47063,115.09769 C 174.99069,115.74856 174.09987,116.05709 173.5866,116.70842 C 173.34663,117.32405 173.48423,117.73494 174.33983,117.70162 C 176.90994,115.57762 181.53739,112.04575 184.31414,111.73674 C 185.1364,110.50358 185.16973,109.57752 185.37637,107.07597 C 190.5523,111.01732 192.19635,109.71512 197.5099,107.45163 C 196.34578,108.78716 195.38591,109.64466 193.36239,110.15982 C 191.34076,110.84401 189.11251,112.62757 187.43322,115.54049 C 185.13831,118.76147 183.14812,121.67581 180.54419,123.01324 C 178.38497,125.27483 176.36336,126.61178 174.20414,126.0633 C 171.66878,124.04167 169.1658,122.05338 166.66234,120.02986 C 167.00467,123.62887 165.12065,125.54813 165.46251,129.49091 C 165.01829,128.87527 164.70928,129.49091 164.29838,128.87527 C 163.92273,129.01144 164.26506,129.04668 163.92273,129.18238 C 167.69267,134.35831 167.76124,138.3349 166.83517,142.27767 C 163.92273,143.09946 162.65433,142.7219 161.00838,141.35304 C 159.32861,140.46221 158.16449,141.04642 158.67775,142.65523 C 159.15769,143.717 159.70475,144.33452 160.49321,145.43009 C 157.03179,145.25916 154.18648,144.50546 151.34069,143.09946 C 150.44987,142.7576 149.90137,142.82617 149.9366,143.44179 C 148.77248,143.71509 148.60108,144.43499 148.12114,145.01729 C 140.75266,144.47022 140.54602,141.8982 139.92849,139.42998 C 139.34667,138.16349 139.03766,138.16349 138.76437,139.42998 C 140.68363,144.36642 137.22268,149.81566 133.5194,154.75353 C 133.79316,157.35745 135.81479,158.76344 133.27991,161.33355 C 128.89243,162.60004 126.5618,163.21758 123.16752,165.07017 C 121.90104,164.48788 121.65917,163.66609 122.24337,163.08188 C 125.50005,161.98632 127.72784,159.62094 129.44093,156.02192 C 129.09859,149.26859 129.61185,141.86487 131.53158,132.95232 C 132.59334,131.61679 134.47926,131.65012 136.46755,131.89008 C 142.60335,128.94241 149.01387,128.36011 156.10954,132.95232 C 156.21191,132.16577 156.1762,131.71916 155.01399,130.9307 C 152.0663,129.38854 148.80962,128.12015 145.55294,128.42915 C 144.49071,125.5167 144.11314,122.39572 144.04458,119.17427 C 143.35991,117.83921 143.12042,115.95329 140.7879,116.60415 C 138.86864,117.25501 136.77799,117.32405 134.24119,117.97491 C 133.6589,117.73494 132.97472,118.1106 132.3905,117.90778 C 128.79197,117.87445 125.19295,115.88615 123.37607,112.04765 C 123.37607,111.05446 121.49204,110.67689 120.70311,110.40359 C 117.7221,108.5191 116.727,107.35308 113.23035,104.33636 C 112.54616,102.34854 113.05943,101.35535 114.25687,100.01792 L 114.25687,100.01601 z M 140.89407,143.79127 C 140.5184,146.94416 139.21431,148.83009 137.70595,150.33797 C 139.55664,154.48548 139.69424,158.90819 136.78179,163.84463 C 136.5085,164.97542 137.63738,164.52881 138.15255,164.49549 C 139.86565,160.93171 141.88916,158.22209 144.15075,156.2338 C 144.66402,154.93208 144.21742,154.10982 143.60368,153.35468 C 142.54193,152.80809 142.50813,151.36687 142.98806,149.48284 C 143.22802,147.66739 143.19279,146.1238 142.98806,144.75304 C 142.30387,144.68591 141.6173,144.30833 140.89788,143.79317 L 140.89407,143.79127 z M 166.39809,143.17611 C 165.67819,146.80799 162.93715,150.37367 158.9939,152.56812 C 157.79454,152.67049 156.52615,152.63526 155.15539,151.78157 C 152.41387,149.51999 152.10535,151.26831 147.8888,146.43423 C 147.75311,145.71481 147.85547,145.40771 148.26446,145.51007 C 149.42906,146.5366 150.66365,147.42933 151.93204,148.25159 C 152.03441,148.14923 152.172,148.04686 152.3077,147.94449 C 151.31451,147.02033 150.62842,146.64277 149.18909,145.68291 C 148.77772,144.72352 149.08672,144.34738 149.94232,144.48355 C 150.59318,144.75684 151.00408,145.13441 151.79254,145.20297 C 151.7592,144.68971 151.10835,144.65639 150.38844,144.27881 C 149.94423,143.86793 150.35511,143.388 150.86838,143.59415 C 154.50072,144.99872 158.06593,146.74704 161.04932,145.99381 C 161.76875,145.72004 161.42499,145.41151 161.22025,144.89826 C 160.91362,144.17836 160.46702,143.45845 159.95376,143.0828 C 159.37146,142.22721 159.68047,141.64348 160.53606,141.88344 C 161.28929,142.29433 162.79765,143.80269 166.39619,143.18516 L 166.39809,143.17611 z M 71.405773,152.05296 C 71.817143,150.8536 72.947936,150.9574 74.83386,150.8198 C 76.99308,150.51317 79.392265,150.40891 80.558291,148.93578 C 81.14059,148.35396 81.82478,148.32015 82.648949,148.83342 C 84.397274,149.86042 86.452222,150.51317 86.589822,153.90556 C 86.589822,155.27632 85.356663,156.33807 83.093171,157.8131 C 81.929051,157.6417 81.038223,157.91547 80.385458,156.7861 C 80.145493,156.37521 79.838393,156.47948 79.460827,157.05988 C 76.959276,157.53981 75.142388,157.33317 73.600701,156.85514 C 73.327407,156.54804 73.360735,156.20428 73.667359,155.86194 C 74.078729,156.06668 74.489623,156.16905 74.900518,156.13525 C 75.722783,155.93099 76.47601,155.65531 78.05293,156.27094 C 78.737595,156.6466 79.423689,156.818 80.108355,155.38011 C 79.903621,154.72925 79.97266,154.35359 80.279283,154.18075 C 80.963948,154.31645 81.650043,154.45405 82.711797,154.31645 C 83.156496,154.14552 83.156496,153.97412 82.711797,153.76986 C 80.723983,153.11852 78.36003,152.70763 75.891807,152.74286 C 74.281081,152.70954 71.333402,153.0852 71.40244,152.05867 L 71.405773,152.05296 z M 73.016498,154.24741 C 72.949841,154.76115 73.358831,154.86304 73.872091,154.89875 C 75.482816,155.03445 77.024504,155.20537 78.8771,154.83161 C 79.52796,154.55832 79.52796,154.31836 78.8771,154.04506 C 77.78154,153.12042 77.233046,153.12042 76.753113,153.29183 C 75.382355,153.12042 74.3206,153.2247 73.429297,153.42753 C 73.156002,153.59845 72.778437,153.66749 73.018403,154.24932 L 73.016498,154.24741 z M 74.147291,158.32827 C 76.340315,158.19258 78.534767,158.19258 80.727791,158.32827 C 80.794449,158.63489 80.556387,158.87485 80.007893,159.08149 C 78.226239,159.49239 76.44411,159.49239 74.660552,159.32146 C 74.078729,158.97912 73.907325,158.63679 74.147291,158.32827 z M 143.73747,86.097024 C 143.67082,84.383932 143.39562,82.189479 144.6283,80.201189 C 145.6215,79.75649 146.58136,79.276557 147.57646,78.797101 C 149.83805,78.010069 152.40816,77.632503 155.73388,78.421439 C 159.23005,78.11434 159.94996,81.402447 161.38975,81.23152 C 162.38295,81.813818 162.58911,83.355505 162.96477,84.659132 C 161.14978,83.357411 159.36623,82.055213 157.5841,80.751587 C 156.14478,79.929799 155.04922,79.827432 154.12316,80.067398 C 154.25885,80.683025 154.90972,81.300081 157.37984,81.917613 C 159.1615,82.704645 160.90982,83.870671 162.41817,86.338894 C 163,87.503016 163.309,89.182303 163,91.925725 C 162.82907,90.899204 162.41817,90.315 161.97347,89.80174 C 161.46022,89.49464 161.11788,89.597006 160.94696,90.041706 C 161.90682,91.274865 163.0019,92.371853 161.70018,95.046714 C 160.56939,95.52617 159.47193,96.141798 158.7525,97.685865 C 157.89691,99.260882 156.79944,99.947451 155.66866,100.56451 C 153.887,101.04444 153.33803,102.5528 151.7611,102.82609 C 150.73459,103.03083 150.49463,102.07287 149.08863,101.31773 C 147.40887,100.39358 146.03811,98.816659 145.00968,96.313202 C 144.66783,94.977676 144.32549,93.640245 144.49642,92.028092 C 144.66783,91.720993 144.83875,91.652431 145.00968,91.856688 C 145.04349,92.130458 145.04349,92.403754 145.07681,92.64372 C 145.31678,92.847977 145.52104,92.883686 145.761,92.710376 C 145.72768,92.539449 145.65911,91.923821 146.37663,92.094749 C 146.58136,92.266153 146.788,92.401848 147.23223,92.539449 C 147.47219,92.472315 147.57456,92.299482 147.57456,91.957149 C 147.1989,90.963956 145.9305,90.757795 144.52451,90.690662 C 144.55784,90.450695 144.55784,90.246439 144.59117,90.006472 C 145.75577,89.972667 146.81942,89.766506 148.53252,90.690662 C 148.97674,91.066323 149.31908,91.512926 148.97674,92.301387 C 148.77248,93.123651 148.60108,93.740707 148.39492,95.385237 C 148.63488,95.691861 148.63488,96.000865 148.49681,96.309393 C 148.83914,96.685054 149.25003,96.754092 149.69664,96.480321 C 149.76378,95.487128 149.62951,94.869595 149.42335,94.321102 C 149.83423,94.014478 149.90328,93.465508 149.90328,92.881781 C 149.86947,91.990954 150.0742,91.066323 149.08101,90.140263 C 148.56775,89.420365 147.43695,89.216108 145.99716,89.284669 C 144.69544,89.455597 144.38691,88.942336 144.38691,88.258147 C 144.76257,86.785022 144.42024,86.614094 143.73557,86.098928 L 143.73747,86.097024 z M 149.08672,98.027722 C 149.25766,98.163417 149.42906,98.027722 149.59999,98.130088 C 150.69554,99.740813 152.23914,99.396577 152.78763,97.719194 C 152.95904,97.412095 152.92332,98.061526 153.19853,97.890122 C 153.36993,98.334821 153.36993,98.712388 153.54086,99.398481 C 153.40516,99.398481 153.3366,99.398481 153.19853,99.398481 C 153.13186,99.227552 153.13186,98.851891 153.02759,98.678582 C 152.06773,99.878414 150.93694,99.980779 149.59999,99.020915 C 149.56665,99.225648 149.53285,99.432286 149.49762,99.636542 C 149.36193,99.876508 149.22432,99.876508 149.08672,99.636542 C 149.08672,99.089953 148.95103,98.540983 149.08672,98.025817 L 149.08672,98.027722 z M 156.14859,83.973037 C 155.90862,84.279661 157.45031,84.41726 157.48363,85.206196 C 157.75741,85.239526 157.7236,85.617091 158.13497,84.692936 C 157.45031,83.973037 156.86801,83.425972 156.14668,83.973037 L 156.14859,83.973037 z M 153.13186,83.560239 C 153.06474,83.866862 154.29599,83.866862 155.25586,84.175866 C 155.83768,83.868767 155.83768,83.52453 155.25586,83.113635 C 153.7475,82.771302 153.23423,83.011268 153.13186,83.558334 L 153.13186,83.560239 z M 152.92523,91.274865 C 154.08983,90.761604 155.35822,90.863495 156.76421,92.268058 C 156.62852,92.574681 156.18191,92.678952 155.77102,92.574681 C 155.66866,93.054614 155.22396,93.15698 154.7445,93.121747 C 153.78463,92.881781 153.68226,92.574681 153.8889,91.957149 C 153.16901,91.821454 152.99807,91.546256 152.92904,91.27296 L 152.92523,91.274865 z M 149.53095,82.669412 C 150.83314,82.464679 151.65493,82.771302 152.41006,83.593567 C 152.58147,83.4912 152.85477,83.593567 152.58147,82.669412 C 151.93013,81.573852 150.25084,81.469581 149.22242,82.189479 C 149.01769,82.565141 149.35811,82.393736 149.52904,82.669412 L 149.53095,82.669412 z M 146.37854,84.486299 C 145.62531,84.45297 145.38534,85.137159 145.28297,85.890386 C 145.00968,86.09512 144.83875,85.992753 144.73638,85.548054 C 144.73638,84.383932 145.11205,83.799728 145.9005,83.799728 C 146.65373,83.902095 146.82513,84.106828 146.38044,84.484394 L 146.37854,84.486299 z M 152.78763,90.725894 C 153.81415,90.384038 154.56929,89.80174 157.17511,91.068227 C 157.6198,90.794933 157.55077,90.485928 156.93515,90.212633 C 155.73579,88.979474 153.98746,89.048512 152.7543,89.321807 C 151.65875,90.041706 151.65875,90.521637 152.78763,90.725894 z M 158.85629,85.343797 C 158.1721,86.474589 158.65205,87.023083 159.64333,87.365417 C 160.49893,87.569673 161.21835,87.878677 160.90982,89.113741 C 161.11408,89.455597 161.45641,89.455597 161.93634,89.113741 C 162.312,87.811544 161.96967,87.023083 160.90982,86.783117 C 159.60762,86.647422 159.29909,86.16749 159.43669,85.51663 C 159.301,85.20953 159.1296,85.140968 158.85439,85.345701 L 158.85629,85.343797 z M 117.37595,76.42934 C 117.82066,78.553326 117.8559,80.507812 117.03362,82.15377 C 116.38277,82.736069 116.34944,83.353601 116.96697,83.9359 C 120.35934,84.58676 121.8339,85.375221 123.00041,86.197485 C 124.19976,85.821824 125.29532,85.477587 126.15282,85.581858 C 126.80368,84.382028 128.2768,83.593567 130.19605,82.97794 C 130.60695,82.875573 130.60695,81.642413 130.70932,80.269751 C 128.99623,80.441155 128.5501,78.110531 128.4144,74.64959 C 124.88442,77.322071 121.25017,78.488097 117.37595,76.431244 L 117.37595,76.42934 z M 112.71329,54.970509 C 116.99839,55.92985 120.56218,54.663362 125.29341,55.34617 C 127.82829,55.379452 128.75483,56.132679 128.72102,58.842772 C 130.09178,60.109261 130.16082,60.864392 129.64565,61.206248 C 129.95228,62.406127 130.46744,63.330235 131.25638,63.914438 C 131.46064,64.700994 131.42731,65.285197 131.18925,65.76513 C 130.33365,69.535074 128.96099,72.449425 127.00841,74.33535 C 124.33545,75.979403 121.62774,76.494569 118.91955,75.945599 C 117.24026,75.261409 115.90284,74.33535 114.84107,73.170752 C 113.16179,71.08057 113.12798,67.926253 112.78613,64.978097 C 112.92183,64.122504 113.09275,63.265529 113.26559,62.374179 C 113.77885,63.094078 114.36114,63.469738 115.01391,63.574009 C 115.59621,63.744938 115.73381,63.094078 115.80095,62.307522 C 116.1428,62.409936 116.48514,62.512255 116.69176,62.923197 C 116.7251,64.431509 116.65796,66.042233 117.03362,67.241588 C 117.37595,67.070659 117.75353,66.934964 118.09586,66.761655 C 118.09586,64.740035 118.09586,62.751745 118.09586,60.728221 C 117.92493,60.181631 117.48023,59.633137 116.69176,59.048934 C 115.01201,59.220339 113.77885,58.844201 112.61282,58.364745 C 112.64662,57.233951 112.67995,56.103159 112.71519,54.972366 L 112.71329,54.970509 z M 118.40438,73.825421 C 118.81576,73.345489 119.49995,73.17456 120.39268,73.345489 C 120.63264,73.721626 120.42601,73.996826 119.87941,74.236792 C 119.29711,74.169659 118.81766,74.032058 118.40628,73.825421 L 118.40438,73.825421 z M 122.24527,62.683183 C 122.58713,62.547536 122.96469,62.47845 123.30703,62.512255 C 122.8628,62.272336 122.58713,61.998518 122.48524,61.620952 C 122.7252,61.485257 122.96469,61.347657 123.16943,61.210058 C 124.43592,61.074363 125.60242,61.243863 126.69941,62.100884 C 126.80178,62.751745 126.69941,63.060796 126.35708,63.094078 C 124.98679,63.196444 123.58223,63.367373 122.17623,63.161259 C 122.21004,62.989807 122.21004,62.818878 122.24337,62.681279 L 122.24527,62.683183 z M 117.2736,71.253403 C 118.26678,71.664297 119.32901,71.973302 120.63264,71.733336 C 120.80357,71.46004 121.04353,71.220074 121.52347,71.082475 C 121.86581,70.946304 122.10577,71.015341 122.31002,71.321965 C 122.34383,71.766664 122.24337,72.14423 122.0034,72.452757 C 121.62774,72.65749 121.42111,72.519891 121.35254,72.110901 C 118.20013,73.137423 117.24026,72.590834 117.2736,71.255307 L 117.2736,71.253403 z M 120.39268,61.003944 C 120.18794,61.585719 119.81038,61.99709 119.29711,62.270384 L 119.29711,61.619524 L 119.46852,60.968187 L 120.39268,61.001991 L 120.39268,61.003944 z M 121.42111,60.181631 C 121.96816,60.248812 122.4481,60.010751 122.82519,59.428404 C 124.05835,59.564099 125.18914,59.564099 126.21804,59.428404 C 126.25138,59.086071 126.04664,58.915143 125.63574,58.881814 C 124.50496,58.779496 123.37416,58.506154 122.07196,58.881814 C 121.79867,58.915143 121.5925,59.086071 121.45681,59.428404 C 120.66978,60.010751 120.63455,60.25067 121.42301,60.181631 L 121.42111,60.181631 z M 117.37595,68.236686 C 118.12919,68.169552 118.98668,68.031952 120.52837,68.134319 C 120.42601,68.545213 120.11747,68.818984 119.56898,68.956584 C 118.95335,69.058951 118.30201,69.127512 117.68496,68.88945 C 117.34263,68.684718 117.24026,68.478557 117.37787,68.23859 L 117.37595,68.236686 z M 112.54235,59.118019 C 112.50903,59.802161 112.50903,60.488731 112.47522,61.208153 C 112.88659,61.619524 113.33081,61.995185 114.08595,61.790452 C 114.56588,61.517205 115.21674,61.483352 116.03901,61.654804 C 116.3123,61.790452 116.58559,62.065651 116.86079,62.510398 C 116.82747,61.757123 116.79413,61.037272 116.4499,60.317326 C 115.59431,59.564099 114.49684,60.181631 113.91502,59.530819 C 113.43508,59.290805 112.99038,59.050839 112.54426,59.119876 L 112.54235,59.118019 z M 135.20297,254.00477 C 137.43074,255.54646 139.69233,257.08862 142.77809,258.25464 C 143.39371,258.32131 143.90888,258.04992 144.18218,257.02149 C 143.90888,256.37063 144.45548,255.37743 145.86147,254.10904 C 145.89527,253.08205 145.51961,252.12075 144.90207,251.1966 C 140.00134,251.22992 137.18888,252.39595 135.20106,254.00668"
     style="fill:#ffcd50;fill-opacity:1;fill-rule:evenodd;stroke:none"
     id="path22" />
  <path
     d="M 122.24527,88.393842 C 122.89614,92.163787 123.64936,95.935636 128.27871,98.848083 C 131.80868,100.76733 134.99633,103.43981 137.70405,106.38987 C 136.53993,107.21166 135.40913,108.03394 134.48307,109.06236 C 132.83901,109.36946 131.22638,108.99522 129.61566,108.65146 C 127.32074,108.17153 125.15962,107.34927 123.10277,106.01231 C 122.41811,104.74582 121.6982,103.37316 121.21875,101.90003 C 120.67168,100.94017 120.46505,99.260882 119.67659,99.020915 C 118.58102,98.918549 118.5458,100.46072 118.10157,101.1449 C 117.03934,100.11838 116.01091,99.705581 114.94916,99.329919 C 115.77095,97.3083 117.51927,96.416996 118.89003,95.593303 C 120.98069,93.091751 121.70011,90.281671 122.24908,88.395747 L 122.24527,88.393842 z M 104.86486,111.73865 C 105.10483,115.30243 104.83154,118.59435 103.46078,121.3711 C 102.26095,123.32368 102.53615,124.86728 103.46078,126.27184 C 104.14497,126.95603 104.79583,127.67592 105.4824,128.36202 C 106.47559,130.41744 105.78902,131.27446 105.1753,132.23433 C 103.29128,134.49591 101.74768,136.93034 100.37693,139.43188 C 100.17219,141.6249 99.350407,142.68857 98.08201,143.0309 C 96.333685,144.12646 95.307163,145.43009 94.585361,146.80085 C 94.552032,145.36105 93.592167,144.40166 92.494703,143.51083 C 91.639109,143.33942 91.843842,143.92172 91.810514,144.29739 C 93.009868,145.46151 93.318873,146.79894 93.214602,148.20493 C 91.741476,149.54045 90.164555,150.73981 88.998529,152.38577 C 88.553831,153.55037 88.073898,154.16743 87.627771,154.26979 C 87.798698,152.55718 87.730137,150.87741 86.017045,149.71139 C 84.68152,148.82056 83.482164,147.9983 82.144734,147.41647 C 83.411223,146.59421 84.133025,145.66815 84.337758,144.60591 C 84.817215,142.82426 86.325573,141.69347 90.026956,142.0358 C 89.719857,141.31591 88.245303,141.07594 86.634578,140.94024 C 86.770273,139.80945 86.9412,138.67866 87.114509,137.54786 C 87.798698,134.05121 89.889356,131.10354 91.912881,128.15585 C 96.711251,123.04848 101.09873,117.63257 104.87058,111.73674 L 104.86486,111.73865 z M 111.51393,102.9975 C 110.65834,104.67678 109.62991,106.11658 108.3258,107.24738 C 107.40165,107.62304 106.75079,109.50896 106.78412,112.42331 C 106.91981,116.29515 106.44179,118.661 105.17339,121.26683 C 104.4892,122.77518 103.28938,124.28354 104.9001,125.79191 C 106.92172,127.36692 107.88159,128.94432 107.81255,130.55694 C 108.83954,130.7612 109.83417,131.0364 111.00067,130.55694 C 110.82926,129.39235 110.62501,128.26155 110.4536,127.09553 C 110.28268,126.30897 109.97367,125.38244 111.78913,126.30897 C 112.06242,127.37072 111.8915,128.26155 112.16479,129.32569 C 112.40476,130.55885 113.50031,131.24494 116.55226,131.6206 C 114.94154,128.22823 115.0101,124.90298 114.66825,120.95972 C 114.90821,119.21188 115.49004,119.58896 116.20993,120.3779 C 115.45671,129.46139 117.82066,131.82724 120.28841,131.34731 C 118.16442,129.56566 118.26678,127.1998 118.95335,124.73157 C 119.12429,123.56745 119.29521,122.43666 119.46662,121.27063 C 120.35744,120.7907 120.66597,121.27063 121.07734,121.54393 C 120.25507,124.28544 119.67277,127.02839 120.53028,129.76991 C 121.62583,130.93451 123.1342,131.41397 124.78015,131.6206 C 127.21267,131.72297 128.34346,130.28508 129.50996,128.94812 C 130.29652,126.069 131.25781,125.58907 132.18244,124.97155 C 131.87534,126.54703 131.05165,128.53533 129.50996,131.07211 C 128.2768,133.67555 126.45944,133.12705 124.78015,133.1961 C 123.23847,135.32009 122.17623,138.68056 121.07925,141.93724 C 120.29221,141.80155 120.35934,139.81326 122.65426,132.68236 C 116.65606,133.29799 111.8915,132.68236 107.53735,131.6206 C 103.73407,136.28137 101.36822,140.97738 100.37312,145.67576 C 98.969027,150.7141 97.563036,153.90175 96.157044,156.8161 C 98.624791,154.69211 101.09301,152.56622 103.56124,150.44033 C 102.32808,152.90855 100.81972,155.06777 97.460669,157.56933 C 95.609978,158.18495 94.821517,159.79758 95.096717,161.85443 C 95.268122,162.47006 95.439049,163.0876 95.609978,163.70512 C 96.329876,162.98523 97.014542,162.30104 97.733964,161.58114 C 97.905369,162.0944 98.076297,162.64289 98.247225,163.15615 C 96.807905,164.49168 95.026251,165.82912 95.094813,167.13274 C 93.210792,169.63429 93.210792,172.10203 93.484564,174.57026 C 100.92209,173.98796 107.16168,168.77679 113.12608,164.49168 C 108.53434,167.91929 106.85316,170.24992 95.609978,176.14576 C 93.588358,175.63249 92.593261,176.86518 92.697532,179.88189 C 91.464372,183.92513 90.915878,187.66365 91.122516,191.0227 C 89.340386,194.55268 88.620964,197.36276 88.998529,199.48865 C 97.67064,199.45532 102.26476,193.38808 106.20563,189.1701 C 101.74959,193.00909 106.99266,194.07085 90.57545,201.33934 C 87.387805,205.34925 87.936299,208.05697 89.000434,210.62898 C 88.898068,212.75297 88.795701,214.87886 88.726663,217.00475 C 87.631579,219.19778 85.951817,221.42555 87.115937,223.62049 C 92.97654,217.27995 98.805241,210.90276 104.63252,204.52699 C 98.702875,211.69122 92.805611,218.85544 86.876448,226.01968 C 85.71185,227.86989 85.643289,229.72058 86.602677,231.57127 C 92.258545,226.46389 97.914415,221.32128 103.57028,216.21439 C 105.8652,213.47287 106.62033,212.75297 108.91763,210.01003 C 112.31001,204.52508 115.77285,197.01852 118.17204,191.53406 C 115.12199,198.56069 113.58031,204.32035 108.09346,212.54681 C 104.63252,216.79669 101.20443,220.12193 97.741582,223.10532 C 94.382532,225.84636 91.023958,228.89832 87.663003,231.63983 C 86.154645,233.49053 86.154645,234.65655 86.327478,236.09634 C 87.767274,235.61641 89.171362,233.35482 90.577355,230.78424 C 89.893165,233.66335 89.068995,236.33631 87.115937,237.94847 C 84.64819,238.90833 84.305858,240.24385 86.089416,241.92504 C 87.493504,243.26057 89.001862,244.5642 91.127753,245.90115 C 95.170993,244.05094 98.874279,241.13658 102.23286,237.16001 C 101.37773,239.25066 101.00017,241.06755 92.154751,247.51188 C 93.489801,248.5384 94.827231,249.60253 96.164186,250.66429 C 97.534944,251.10899 98.563371,251.55512 101.44249,251.99982 C 102.77801,251.38419 104.11545,252.17074 105.41907,254.399 C 113.5765,247.16621 119.36996,213.43382 119.23427,195.78012 C 121.32445,204.96597 117.17884,238.28699 109.08856,250.56049 C 112.61853,248.1613 115.66858,246.85911 119.23427,245.89973 C 114.50446,248.81217 108.98429,251.51989 107.27167,255.18937 C 107.47592,256.69772 109.77274,256.0802 114.19593,253.33915 C 116.21755,252.72352 117.89683,253.16774 119.23427,254.64087 C 120.91356,256.42253 122.93517,256.42253 125.30103,254.64087 C 127.22029,253.06538 128.83101,252.17265 130.06607,252.00172 C 131.02546,249.87774 131.77869,247.75184 133.49368,245.62595 C 134.72684,243.67337 135.99524,242.60923 137.22983,241.40988 C 135.44817,243.7048 134.38641,246.00162 134.04218,248.29891 C 137.57216,246.00352 141.10214,245.11079 144.63402,245.62595 C 135.2082,246.75674 131.91629,249.80727 131.12783,253.33915 C 132.18958,253.40581 133.59605,253.16774 135.3439,252.55212 C 137.46789,250.6681 139.97135,249.87964 142.7819,250.15293 C 145.62531,250.2553 147.8888,251.07756 149.80806,252.20836 C 149.19242,248.95167 147.99307,246.48345 146.72468,244.2552 C 145.52484,239.90343 144.94302,235.96065 144.39405,231.84646 C 146.48471,238.90643 148.3354,246.14112 151.00979,251.21516 C 153.13378,251.3861 155.49963,251.21516 159.75093,248.54221 C 161.15503,247.75565 162.59482,246.96719 164.00081,246.17825 C 163.55612,244.3966 161.70589,241.20895 158.44921,236.61532 C 157.83359,232.36544 157.11368,228.3203 155.77673,225.47451 C 154.92113,223.00676 153.58371,220.81373 149.161,220.43617 C 145.87098,220.19621 143.67606,218.14126 142.51194,214.33608 C 135.24534,215.32879 133.59938,211.97212 132.70856,207.99555 C 127.22409,207.10472 124.62017,204.8079 124.79111,201.10652 C 124.79111,192.16064 124.79111,183.24666 124.79111,174.30078 C 123.28275,179.23675 121.77438,182.35583 120.30174,185.20114 C 122.32335,180.50514 124.17404,175.91103 124.5178,171.66162 C 124.68921,169.53763 124.89347,167.17178 125.06487,165.04589 C 124.34498,165.31918 124.14024,165.52582 122.52952,166.00576 C 121.50299,165.04589 120.98783,163.91509 121.29683,162.74907 C 124.72444,161.17357 126.71274,159.93899 128.46059,155.96241 C 128.76768,149.51808 128.08493,142.04533 130.07131,135.60052 C 129.90038,132.5838 131.13354,131.00878 133.77269,130.83595 C 137.02937,130.01369 140.31939,129.22523 143.57608,128.43629 C 143.23374,125.52385 142.89141,122.60949 142.51384,119.69515 C 142.17151,117.67352 141.45209,117.056 140.38986,117.84446 C 138.05971,118.28915 135.1806,118.49579 135.11155,119.69515 C 134.325,119.69515 133.50083,119.69515 132.71237,119.69515 C 132.09674,118.87336 131.13735,118.46198 129.79992,118.39342 C 125.20771,117.36642 123.63079,114.76108 121.88247,112.29285 C 117.70162,110.1003 114.34067,106.87695 111.53059,103.00321"
     style="fill:#ffcd50;fill-opacity:1;fill-rule:evenodd;stroke:none"
     id="path1937" />
</svg>
